<svg xmlns="http://www.w3.org/2000/svg" viewBox="0 0 64 80" x="0px" y="0px">
  <g data-name="Clear">
    <path fill="#000" stroke="#000" stroke-width="2" d="M42.65,26.3h-6l.95-17.2a1,1,0,0,0-.28-.74,1,1,0,0,0-.72-.31H27.42a1,1,0,0,0-.72.31,1,1,0,0,0-.28.74l.95,17.2h-6a8,8,0,0,0-8,8V55a1,1,0,0,0,1,1h35.3a1,1,0,0,0,1-1V34.3A8,8,0,0,0,42.65,26.3ZM28.48,10.05h7L34.63,26.3H29.37ZM21.35,28.3h21.3a6,6,0,0,1,6,6v2.06H15.35V34.3A6,6,0,0,1,21.35,28.3ZM42.82,54V48.87a1,1,0,0,0-2,0V54H37V43.81a1,1,0,0,0-2,0V54H23.66V48a1,1,0,0,0-2,0V54H15.35V38.36h33.3V54Z"/>
  </g>
</svg>
