<svg xmlns="http://www.w3.org/2000/svg" xmlns:xlink="http://www.w3.org/1999/xlink" viewBox="0,0,256,256" width="50px" height="50px">
    <g fill="#2c3ad1" fill-rule="nonzero" stroke="none" stroke-width="1" stroke-linecap="butt" stroke-linejoin="miter" stroke-miterlimit="10" stroke-dasharray="" stroke-dashoffset="0" font-family="none" font-weight="none" font-size="none" text-anchor="none" style="mix-blend-mode: normal">
        <g transform="scale(5.12,5.12)"><path d="M25,1.05078c-0.2175,0 -0.43414,0.06898 -0.61914,0.20898l-23,17.95117c-0.43,0.34 -0.50992,0.9682 -0.16992,1.4082c0.34,0.43 0.9682,0.50992 1.4082,0.16992l1.38086,-1.07812v26.28906c0,0.55 0.45,1 1,1h14v-18h12v18h14c0.55,0 1,-0.45 1,-1v-26.28906l1.38086,1.07812c0.19,0.14 0.39914,0.21094 0.61914,0.21094c0.3,0 0.58906,-0.13086 0.78906,-0.38086c0.34,-0.44 0.26008,-1.0682 -0.16992,-1.4082l-23,-17.95117c-0.185,-0.14 -0.40164,-0.20898 -0.61914,-0.20898zM35,5v1.05078l6,4.67969v-5.73047z"></path></g></g>
    <g fill="#ffffff" fill-rule="nonzero" stroke="none" stroke-width="1" stroke-linecap="butt" stroke-linejoin="miter" stroke-miterlimit="10" stroke-dasharray="" stroke-dashoffset="0" font-family="none" font-weight="none" font-size="none" text-anchor="none" style="mix-blend-mode: normal"><g><path d="M90.232,113.282v0c0,-1 -0.37667,-1.77667 -1.13,-2.33c-0.75333,-0.55333 -2.06667,-1.03 -3.94,-1.43c-1.87333,-0.4 -3.36,-0.88 -4.46,-1.44c-1.1,-0.56 -1.91333,-1.22667 -2.44,-2c-0.52667,-0.77333 -0.79,-1.69333 -0.79,-2.76v0c0,-1.77333 0.75,-3.27333 2.25,-4.5c1.5,-1.22667 3.41667,-1.84 5.75,-1.84v0c2.45333,0 4.44333,0.63333 5.97,1.9c1.52667,1.26667 2.29,2.88667 2.29,4.86v0h-3.72c0,-1.01333 -0.43,-1.88667 -1.29,-2.62c-0.86,-0.73333 -1.94333,-1.1 -3.25,-1.1v0c-1.34667,0 -2.4,0.29333 -3.16,0.88c-0.76,0.58667 -1.14,1.35333 -1.14,2.3v0c0,0.89333 0.35333,1.56667 1.06,2.02c0.70667,0.45333 1.98333,0.88667 3.83,1.3c1.84667,0.41333 3.34333,0.90667 4.49,1.48c1.14667,0.57333 1.99667,1.26333 2.55,2.07c0.55333,0.80667 0.83,1.79 0.83,2.95v0c0,1.93333 -0.77333,3.48333 -2.32,4.65c-1.54667,1.16667 -3.55333,1.75 -6.02,1.75v0c-1.73333,0 -3.26667,-0.30667 -4.6,-0.92c-1.33333,-0.61333 -2.37667,-1.47 -3.13,-2.57c-0.75333,-1.1 -1.13,-2.29 -1.13,-3.57v0h3.7c0.06667,1.24 0.56333,2.22333 1.49,2.95c0.92667,0.72667 2.15,1.09 3.67,1.09v0c1.4,0 2.52333,-0.28333 3.37,-0.85c0.84667,-0.56667 1.27,-1.32333 1.27,-2.27zM102.772,97.382v21.64h-3.7v-21.64zM98.772,91.642v0c0,-0.6 0.18333,-1.10667 0.55,-1.52c0.36667,-0.41333 0.91,-0.62 1.63,-0.62c0.72,0 1.26667,0.20667 1.64,0.62c0.37333,0.41333 0.56,0.92 0.56,1.52c0,0.6 -0.18667,1.1 -0.56,1.5c-0.37333,0.4 -0.92,0.6 -1.64,0.6c-0.72,0 -1.26333,-0.2 -1.63,-0.6c-0.36667,-0.4 -0.55,-0.9 -0.55,-1.5zM107.812,108.022v0c0,-3.37333 0.78,-6.05667 2.34,-8.05c1.56,-1.99333 3.62667,-2.99 6.2,-2.99v0c2.64,0 4.7,0.93333 6.18,2.8v0l0.18,-2.4h3.38v21.12c0,2.8 -0.83,5.00667 -2.49,6.62c-1.66,1.61333 -3.89,2.42 -6.69,2.42v0c-1.56,0 -3.08667,-0.33333 -4.58,-1c-1.49333,-0.66667 -2.63333,-1.58 -3.42,-2.74v0l1.92,-2.22c1.58667,1.96 3.52667,2.94 5.82,2.94v0c1.8,0 3.20333,-0.50667 4.21,-1.52c1.00667,-1.01333 1.51,-2.44 1.51,-4.28v0v-1.86c-1.48,1.70667 -3.5,2.56 -6.06,2.56v0c-2.53333,0 -4.58333,-1.02 -6.15,-3.06c-1.56667,-2.04 -2.35,-4.82 -2.35,-8.34zM111.532,108.442v0c0,2.44 0.5,4.35667 1.5,5.75c1,1.39333 2.4,2.09 4.2,2.09v0c2.33333,0 4.04667,-1.06 5.14,-3.18v0v-9.88c-1.13333,-2.06667 -2.83333,-3.1 -5.1,-3.1v0c-1.8,0 -3.20667,0.7 -4.22,2.1c-1.01333,1.4 -1.52,3.47333 -1.52,6.22zM131.672,97.382h3.5l0.12,2.72c1.65333,-2.08 3.81333,-3.12 6.48,-3.12v0c4.57333,0 6.88,2.58 6.92,7.74v0v14.3h-3.7v-14.32c-0.01333,-1.56 -0.37,-2.71333 -1.07,-3.46c-0.7,-0.74667 -1.79,-1.12 -3.27,-1.12v0c-1.2,0 -2.25333,0.32 -3.16,0.96c-0.90667,0.64 -1.61333,1.48 -2.12,2.52v0v15.42h-3.7zM158.292,88.302v30.72h-3.7v-30.72zM165.892,97.382l5.4,16.22l5.04,-16.22h3.96l-8.7,24.98c-1.34667,3.6 -3.48667,5.4 -6.42,5.4v0l-0.7,-0.06l-1.38,-0.26v-3l1,0.08c1.25333,0 2.23,-0.25333 2.93,-0.76c0.7,-0.50667 1.27667,-1.43333 1.73,-2.78v0l0.82,-2.2l-7.72,-21.4z"></path></g></g>
</svg>