<svg xmlns="http://www.w3.org/2000/svg" version="1.1" xmlns:xlink="http://www.w3.org/1999/xlink" xmlns:svgjs="http://svgjs.dev/svgjs" width="2000" height="722" viewBox="0 0 2000 722"><g transform="matrix(1,0,0,1,-1.2112696095522324,0.9750116788001151)"><svg viewBox="0 0 396 143" data-background-color="#ffffff" preserveAspectRatio="xMidYMid meet" height="722" width="2000" xmlns="http://www.w3.org/2000/svg" xmlns:xlink="http://www.w3.org/1999/xlink"><g id="tight-bounds" transform="matrix(1,0,0,1,0.24008861730862918,-0.1931117313966979)"><svg viewBox="0 0 395.52 143.38622346279337" height="143.38622346279337" width="395.52"><g><svg viewBox="0 0 395.52 143.38622346279337" height="143.38622346279337" width="395.52"><g><svg viewBox="0 0 395.52 143.38622346279337" height="143.38622346279337" width="395.52"><g id="textblocktransform"><svg viewBox="0 0 395.52 143.38622346279337" height="143.38622346279337" width="395.52" id="textblock"><g><svg viewBox="0 0 395.52 143.38622346279337" height="143.38622346279337" width="395.52"><path d="M394.594 30.754C392.735 15.87 387.435 11.733 387.435 11.733 371.165-3.597 350.86-0.293 332.619 1.909 300.414 1.999 268.339 5.273 236.208 7.029 168.767 7.297 100.749 2.892 33.643 13.757 27.339 17.091-6.54 14.412 1.121 32.659 3.129 40.249 10.456 48.673 10.232 55.639 11.236 56.859 12.631 54.061 13.226 55.817 15.309 60.55 18.711 58.318 21.501 61.116 17.614 68.587 20.403 74.809 23.062 81.328 18.377 83.024 12.371 82.221 9.675 87.846 9.396 91.925 7.89 91.151 6.235 90.972 5.026 90.853 2.59 91.299 2.999 92.579 4.394 96.955-1.594 99.485 2.162 103.772-0.422 108.415 3.948 112.434 3.353 117.465 3.278 118.477 3.687 119.34 4.338 119.578 7.22 120.858 3.018 123.358 3.464 126.067 33.029 144.582 65.104 131.782 95.394 140.296 103.259 134.342 97.346 142.409 100.489 141.159 102.943 139.7 104.728 145.743 107.499 142.32 107.927 141.338 107.276 139.016 108.8 139.462 109.6 139.7 110.307 139.641 110.418 138.272 110.586 136.218 109.117 137.498 108.726 136.426 112.947 131.008 111.906 143.898 115.866 143.362 115.68 141.784 114.528 139.522 116.889 139.819 119.232 137.557 119.306 135.682 121.389 140.772 121.463 141.873 121.835 142.647 122.43 143.183 128.938 137.646 135.409 145.148 142.233 142.647 146.417 139.909 150.433 144.136 154.672 143.094 156.16 142.26 157.666 140.772 159.098 143.272 176.632 143.808 195.319 141.576 211.943 143.362 256.364 140.028 303.836 144.731 350.674 140.325 361.719 138.629 373.192 136.218 383.958 134.283 383.958 134.283 392.679 128.984 392.679 105.171S394.538 84.334 394.817 65.372C395.096 46.411 396.398 45.637 394.538 30.754Z" opacity="1" fill="#1da1f2" data-fill-palette-color="tertiary"></path><g transform="matrix(1,0,0,1,55.76832,26.230666666666668)"><svg width="283.98335999999995" viewBox="0.9 -38.9 158.34 50.7" height="90.92489012946004" data-palette-color="#ffffff"><path d="M13.05 0.7Q6.75 0.7 0.9-1.3L0.9-1.3 0.9-8.7 9-8.7 9-8.2Q9-5.8 12.05-5.8L12.05-5.8Q14.75-5.8 14.75-7.65L14.75-7.65Q14.75-8.65 13.98-9.15 13.2-9.65 11.25-10L11.25-10 8.75-10.45Q0.9-11.85 0.9-19.35L0.9-19.35Q0.9-23.7 4.2-26.1 7.5-28.5 13.1-28.5L13.1-28.5Q19.35-28.5 23.65-26.4L23.65-26.4 23.65-19.45 16.05-19.45 16.05-19.95Q16.05-20.95 15.38-21.48 14.7-22 13.4-22L13.4-22Q10.9-22 10.9-20.4L10.9-20.4Q10.9-19.55 11.6-19.1 12.3-18.65 14.15-18.25L14.15-18.25 17-17.7Q21.45-16.85 23.35-14.55 25.25-12.25 25.25-8.65L25.25-8.65Q25.25-4.1 22.08-1.7 18.9 0.7 13.05 0.7L13.05 0.7ZM39.45-30.55L29.25-30.55 29.25-38.9 39.45-38.9 39.45-30.55ZM42.75 0L26.85 0 26.85-8.2 29.05-8.2 29.05-19.6 26.85-19.6 26.85-27.8 40.55-27.8 40.55-8.2 42.75-8.2 42.75 0ZM58.8 11.8Q55.2 11.8 51.92 11.3 48.65 10.8 46.85 10.15L46.85 10.15 46.85 1.95Q52.15 2.9 56.35 2.9L56.35 2.9Q59.2 2.9 60.47 2.02 61.75 1.15 61.75-1.25L61.75-1.25 61.75-3.4Q60.5-1.8 58.52-0.55 56.55 0.7 54 0.7L54 0.7Q48.9 0.7 46.32-3.1 43.75-6.9 43.75-13.9L43.75-13.9Q43.75-20.9 46.32-24.7 48.9-28.5 54-28.5L54-28.5Q56.55-28.5 58.52-27.25 60.5-26 61.75-24.4L61.75-24.4 61.75-27.8 75.45-27.8 75.45-19.6 73.25-19.6 73.25-2Q73.25 5.25 69.65 8.53 66.05 11.8 58.8 11.8L58.8 11.8ZM58.85-8.2Q60.3-8.2 61.02-8.97 61.75-9.75 61.75-11.4L61.75-11.4 61.75-16.4Q61.75-18.05 61.02-18.82 60.3-19.6 58.85-19.6L58.85-19.6Q57.4-19.6 56.67-18.82 55.95-18.05 55.95-16.4L55.95-16.4 55.95-11.4Q55.95-9.75 56.67-8.97 57.4-8.2 58.85-8.2L58.85-8.2ZM107.84-8.2L110.04-8.2 110.04 0 94.24 0 94.24-8.2 96.34-8.2 96.34-16.4Q96.34-18.05 95.64-18.82 94.94-19.6 93.54-19.6L93.54-19.6Q90.54-19.6 90.54-16.4L90.54-16.4 90.54-8.2 92.64-8.2 92.64 0 76.84 0 76.84-8.2 79.04-8.2 79.04-19.6 76.84-19.6 76.84-27.8 90.54-27.8 90.54-23.9Q94.14-28.5 99.54-28.5L99.54-28.5Q103.69-28.5 105.77-25.9 107.84-23.3 107.84-18.75L107.84-18.75 107.84-8.2ZM127.54 0.05L111.64 0.05 111.64-8.2 113.84-8.2 113.84-30.7 111.64-30.7 111.64-38.9 125.34-38.9 125.34-8.2 127.54-8.2 127.54 0.05ZM145.34-27.8L159.24-27.8 159.24-19.6 157.34-19.6 150.79-2.25Q148.34 4.3 145.19 7.58 142.04 10.85 136.89 10.85L136.89 10.85Q134.79 10.85 132.64 10.43 130.49 10 128.74 9.25L128.74 9.25 128.74 0.2 135.64 0.2 135.64 0.7Q135.64 1.95 136.94 1.95L136.94 1.95Q138.09 1.95 138.69 0.85L138.69 0.85 130.79-19.6 128.89-19.6 128.89-27.8 143.74-27.8 143.74-19.6 142.04-19.6 144.64-11.8 147.04-19.6 145.34-19.6 145.34-27.8Z" opacity="1" transform="matrix(1,0,0,1,0,0)" fill="#ffffff" class="wordmark-text-0" data-fill-palette-color="quaternary" id="text-0"></path></svg></g></svg></g></svg></g></svg></g><g></g></svg></g><defs></defs></svg><rect width="395.52" height="143.38622346279337" fill="none" stroke="none" visibility="hidden"></rect></g></svg></g></svg>