<svg xmlns="http://www.w3.org/2000/svg" xmlns:xlink="http://www.w3.org/1999/xlink" version="1.0" x="0px" y="0px" viewBox="0 0 100 125" enable-background="new 0 0 100 100" xml:space="preserve">
  <polygon points="20,33.333 20,46.667 26.667,46.667 26.667,40 33.333,40 33.333,73.334 26.667,73.334 26.667,80 46.667,80   46.667,73.334 40,73.334 40,40 46.667,40 46.667,46.667 53.333,46.667 53.333,33.333 " fill="#1da1f2" />
  <path d="M80,26.667V20c-4.004,0-7.556,1.803-10,4.6c-2.444-2.796-5.996-4.6-10-4.6v6.667c3.682,0,6.667,2.985,6.667,6.667v20H60V60  h6.667v6.666c0,3.682-2.985,6.668-6.667,6.668V80c4.004,0,7.556-1.803,10-4.6c2.444,2.797,5.996,4.6,10,4.6v-6.666  c-3.682,0-6.667-2.986-6.667-6.668V60H80v-6.666h-6.667v-20C73.333,29.652,76.318,26.667,80,26.667z" fill="#1da1f2" />
</svg>
